# xmcd CD database file
#
# Track frame offsets:
#	180
#	17687
#	36263
#	51476
#	66145
#	80158
#	94586
#	113511
#	128697
#	140279
#	156417
#	170697
#
# Disc length: 2490 seconds
#
# Revision: 1
# Processed by: cddbd v1.5.2PL0 Copyright (c) Steve Scherf et al.
# Submitted via: CDex 1.70beta2
#
DISCID=a009b80c
DTITLE=Various Artist - Dixieland America
DYEAR=2001
DGENRE=Jazz
TTITLE0=Stars and Stripes Forever
TTITLE1=Armed Forces Medley: Caissons Go Rolling Along/Anchors Aweigh/Marines' Hymn/The U.S. Air Force Song
TTITLE2=America (My Country 'Tis Of Thee)/America The Beautiful
TTITLE3=God Bless America Medley: God Bless America/You're A Grand Old Flag/Yankee Doodle Boy
TTITLE4=Avalon
TTITLE5=Civil War Medley: When Johnny Comes Marching Home/The Battle Cry Of Freedom/Dixie
TTITLE6=Carolina In The Morning
TTITLE7=Over There
TTITLE8=This Land Is Your Land
TTITLE9=Yankee Doodle/Battle Hymn Of The Republic
TTITLE10=American Cities Medley: Chicago (That Toddlin' Town)/I Left My Heart In San Francisco/New York, New York
TTITLE11=Do You Know What It Means To Miss New Orleans?
EXTD=YEAR: 2001
EXTT0=
EXTT1=
EXTT2=
EXTT3=
EXTT4=
EXTT5=
EXTT6=
EXTT7=
EXTT8=
EXTT9=
EXTT10=
EXTT11=
PLAYORDER=
